inDegrees=no
num_controls=7
num_derivatives=13
num_iterations=81
num_multipliers=7
num_parameters=0
num_slacks=7
num_states=26
objective=5.091052
objective_accelerations=0.632242
objective_balance=0.017056
objective_effort=0.166201
objective_height=4.249409
objective_ligament=0.026144
solver_duration=896.662515
status=Solve_Succeeded
success=true
DataType=double
version=3
OpenSimVersion=4.4-2022-07-23-0e9fedc
endheader
time	/jointset/ground_pelvis/pelvis_tilt/value	/jointset/ground_pelvis/pelvis_tx/value	/jointset/ground_pelvis/pelvis_ty/value	/jointset/hip_l/hip_flexion_l/value	/jointset/hip_l/hip_adduction_l/value	/jointset/hip_l/hip_rotation_l/value	/jointset/back/lumbar_extension/value	/jointset/patellofemoral_l/patellar_flexion_l/value	/jointset/knee_l/knee_flexion_l/value	/jointset/knee_l/knee_adduction_l/value	/jointset/knee_l/knee_rotation_l/value	/jointset/ankle_l/ankle_angle_l/value	/jointset/subtalar_l/subtalar_angle_l/value	/jointset/ground_pelvis/pelvis_tilt/speed	/jointset/ground_pelvis/pelvis_tx/speed	/jointset/ground_pelvis/pelvis_ty/speed	/jointset/hip_l/hip_flexion_l/speed	/jointset/hip_l/hip_adduction_l/speed	/jointset/hip_l/hip_rotation_l/speed	/jointset/back/lumbar_extension/speed	/jointset/patellofemoral_l/patellar_flexion_l/speed	/jointset/knee_l/knee_flexion_l/speed	/jointset/knee_l/knee_adduction_l/speed	/jointset/knee_l/knee_rotation_l/speed	/jointset/ankle_l/ankle_angle_l/speed	/jointset/subtalar_l/subtalar_angle_l/speed	/forceset/tau_hip_flexion_l	/forceset/tau_hip_adduction_l	/forceset/tau_hip_rotation_l	/forceset/tau_knee_flexion_l	/forceset/tau_ankle_angle_l	/forceset/tau_subtalar_angle_l	/forceset/tau_lumbar_extension	lambda_cid13_p0	lambda_cid13_p1	lambda_cid13_p2	lambda_cid13_p3	lambda_cid13_p4	lambda_cid13_p5	lambda_cid14_p0	/jointset/ground_pelvis/pelvis_tilt/accel	/jointset/ground_pelvis/pelvis_tx/accel	/jointset/ground_pelvis/pelvis_ty/accel	/jointset/hip_l/hip_flexion_l/accel	/jointset/hip_l/hip_adduction_l/accel	/jointset/hip_l/hip_rotation_l/accel	/jointset/back/lumbar_extension/accel	/jointset/patellofemoral_l/patellar_flexion_l/accel	/jointset/knee_l/knee_flexion_l/accel	/jointset/knee_l/knee_adduction_l/accel	/jointset/knee_l/knee_rotation_l/accel	/jointset/ankle_l/ankle_angle_l/accel	/jointset/subtalar_l/subtalar_angle_l/accel	gamma_cid13_p0	gamma_cid13_p1	gamma_cid13_p2	gamma_cid13_p3	gamma_cid13_p4	gamma_cid13_p5	gamma_cid14_p0
1.5	-0.3163289145335857	0.06473649123034053	0.802171347678505	0.9334922870875514	-0.3678209278677402	-0.03215677524113503	-0.3205167018581307	0.7776593542269005	0.7776593542266336	-0.07685203279195123	-0.1587566543502743	0.2740926695533443	0.1416966447959778	0.4148295649813641	0.2522114943127922	0.4402717702026653	-2.122371688061392	0.002642951932693734	-0.5560192308211143	0.6176978026840267	-2.097257922787209	-2.097257922787152	-0.2648498610838927	0.1077379877075754	-0.5510358775485585	-0.2050866867335215	-0.1213023324905146	0.04736895371734447	0.01251034462802857	-0.1324611641074478	-0.03952811408169973	-0.004446427673810336	0.118871992397703	-37.48636249912776	8.175049346742055	-1.219248537691094	-0.7025395267485495	-431.2646241251789	-45.55906638797462	-11.73138972092403	0.4825678187096595	0.4640838458920664	-0.710195878450983	-1.097886037660961	0.2956441938402395	-0.2536168157428334	1.40926501504481	-1.071439848427305	-1.071439848427238	-0.07254459790117122	0.4923198027339306	-0.4791785550301897	0.4093900893346067	1.522402750528817e-07	3.405437788421894e-06	-2.274297596411459e-06	3.521339633203203e-07	6.688055060213446e-07	2.597233935642957e-06	5.113668875642837e-07
1.51	-0.3121565287160211	0.06728146866727731	0.8065377035402903	0.9122150964166226	-0.3677818743898062	-0.03772937984143989	-0.3142710869870292	0.7566350123346999	0.7566350123343316	-0.07950814375189104	-0.15765778491367	0.2685582954420893	0.1396633060366936	0.4195662456307181	0.256740008566807	0.4329049382118351	-2.132754755368981	0.005180155484220237	-0.5584470949844816	0.6313219617900533	-2.107316168633109	-2.107316168633102	-0.2663264898845439	0.1120432012981674	-0.5557510543101102	-0.201540181799462	-0.1172741073167721	0.04604589775326777	0.01349170927157945	-0.1297102532650536	-0.03917615511013924	-0.005840493937950397	0.1154418363314868	-37.31444967172519	8.651204730171498	-1.181866310218628	-0.4925296572477229	-428.4438938087898	-45.08682339352926	-12.55781449646419	0.4570375479656142	0.4407101055328345	-0.7639073226996865	-0.9617278388100412	0.2347949945792713	-0.228482289166568	1.323509898907123	-0.9290080899879767	-0.9290080899951735	-0.1779095301282757	0.4001555602001239	-0.4543782626409535	0.3332183135377648	1.926390582236839e-07	3.698425612319348e-06	-3.044991728103982e-06	3.592055446590056e-07	8.51516613769193e-07	3.080040744781713e-06	6.166965493473718e-07
1.52	-0.3079392122200134	0.06987042622482902	0.8108275949895082	0.8908434329203008	-0.3677170415645354	-0.04332448529799479	-0.3078923268167639	0.7355188897565317	0.7355188897561902	-0.08217755850136625	-0.1565157566566401	0.2629794313580459	0.1376666198503762	0.4238157006768776	0.261007518435778	0.424978887689189	-2.141266253136547	0.007798821386653963	-0.5605194020491718	0.6443268625171766	-2.115614059971721	-2.115614059971764	-0.2675106190444237	0.1163697518079143	-0.5599338721086341	-0.1977561721415805	-0.1132458821430902	0.04472284178866311	0.01447307391550719	-0.1269593424227947	-0.03882419613874635	-0.007234560202813768	0.1120116802653348	-37.13915427584801	9.119078896707864	-1.13437943381279	-0.3192952529746822	-425.5999868172985	-44.70993165749962	-13.38138235056159	0.3851226980718243	0.4118829688821862	-0.8220395848141865	-0.7235721296558716	0.3119366640223575	-0.1825053960068848	1.285413339265101	-0.7193689469696023	-0.7193689469695915	-0.0140446697460451	0.4965871865657491	-0.3727067624259889	0.4568910340992664	2.058155193958218e-07	3.998539484611701e-06	-3.344167886616362e-06	3.856893673277133e-07	9.343683467267552e-07	3.376686183981583e-06	6.697418751478394e-07
1.53	-0.3036817261298069	0.07250068467761399	0.8150355391092109	0.8693958522207635	-0.3676256410139674	-0.04893925769346309	-0.3013867315129933	0.7143285721687203	0.7143285721684195	-0.08485702030828579	-0.1553308711429242	0.2573613731560498	0.1357089398432213	0.4276067751657108	0.2649927007193356	0.4165254225637782	-2.147940697288848	0.01048160580285793	-0.5623485100676379	0.6566819304220261	-2.122151658267725	-2.122151658267676	-0.2683733562778593	0.1206197225550954	-0.5635922609698625	-0.1937588586887583	-0.1094177690052797	0.04280615918562106	0.01545450920855132	-0.1240927768937368	-0.03904763528223311	-0.00837326416912889	0.1087166951654996	-37.14784201481863	9.469671453539537	-1.024115231545584	0.03493018614981057	-423.0523583556534	-44.64856641032691	-14.20234639101747	0.3649093183700945	0.3842067484676982	-0.8694972948974159	-0.5929700143462208	0.2465287313249387	-0.1694408933834834	1.194013346237382	-0.5764185527811044	-0.5764185527668373	-0.1205941178779248	0.3905735067168704	-0.3494337007270628	0.3739558088474461	1.900682634443793e-07	4.30622478332363e-06	-3.142356198624845e-06	4.327986964095696e-07	9.111194939696397e-07	3.475535167621389e-06	6.672350939667732e-07
1.54	-0.2993885673959438	0.0751692691313095	0.8191564491139616	0.8478908091884158	-0.367507396738992	-0.05456958664694317	-0.2947608935641498	0.6930817859417154	0.6930817859412197	-0.08754475066168368	-0.1541032116237137	0.2517093253149019	0.1337917938321936	0.4309502294179086	0.2686727186178833	0.4075720646988001	-2.152758719694197	0.01316756625538142	-0.5636307136307679	0.668375391532641	-2.12690778783839	-2.126907787838249	-0.2691643282206971	0.1249245528191693	-0.5667317999413803	-0.1896493729170142	-0.1055896558675336	0.04088947658203589	0.01643594449875211	-0.1212262113647554	-0.03927107442593276	-0.009511968136195828	0.1054217100657687	-37.15320963635806	9.813953160571039	-0.9062986225029355	0.3530293472963836	-420.4716404474085	-44.67178643520732	-15.02140506077981	0.2955986507456106	0.3508500918791168	-0.9220181327276283	-0.3522877802653795	0.312571871287137	-0.07312450493929801	1.153091980419023	-0.363075201901246	-0.3630752019012474	0.0003083883744128511	0.5075590899450865	-0.2689367844852069	0.4793254978838913	1.673499778071857e-07	4.667287823814954e-06	-2.901595918094915e-06	4.930428955089274e-07	8.574748834676968e-07	3.558821784972179e-06	6.665861903598345e-07
